/* XPM */
static char *result[] = {
/* columns rows colors chars-per-pixel */
"32 32 4 1 ",
"  c #C06C84",
". c #000000",
"X c #FFFC9A",
"o c None",
/* pixels */
"ooooooooooooXXXXXXXXoooooooooooo",
"oooooooooXXX        XXXooooooooo",
"oooooooXX              XXooooooo",
"ooooooX                  Xoooooo",
"oooooX                    Xooooo",
"ooooX                      Xoooo",
"oooX                        Xooo",
"ooX                          Xoo",
"ooX  .      .    .......     Xoo",
"oX   .      .          ..     Xo",
"oX   .      .           .     Xo",
"oX   .      .           .     Xo",
"X    .      .           .      X",
"X    .      .           .      X",
"X    .      .           .      X",
"X    .      .         ...      X",
"X    .      .        .         X",
"X    ........       .          X",
"X           .      .           X",
"X           .      .           X",
"oX          .     .           Xo",
"oX          .     .           Xo",
"oX          .     .           Xo",
"ooX         .     .          Xoo",
"ooX         .     .          Xoo",
"oooX        .     ........  Xooo",
"ooooX       .              Xoooo",
"oooooX                    Xooooo",
"ooooooX                  Xoooooo",
"oooooooXX              XXooooooo",
"oooooooooXXX        XXXooooooooo",
"ooooooooooooXXXXXXXXoooooooooooo"
};
