/* XPM */
static char *result[] = {
/* columns rows colors chars-per-pixel */
"64 64 9 1 ",
"  c #323C39",
". c #3F3F74",
"X c #6ABE30",
"o c #37946E",
"O c #FBF236",
"+ c #99E550",
"@ c #306082",
"# c #5B6EE1",
"$ c None",
/* pixels */
"........$$$$$$$$$$$$$$$$$$$$$$$$$$$$$$$$$$$$$$$$$$$$$$$$$$$$$$$$",
"........$$$$$$$$$$$$$$$$$$$$$$$$$$$$$$$$$$$$$$$$$$$$$$$$$$$$$$$$",
"........$$$$$$$$$$$$$$$$$$$$$$$$$$$$$$$$$$$$$$$$$$$$$$$$$$$$$$$$",
"........$$$$$$$$$$$$$$$$$$$$$$$$$$$$$$$$$$$$$$$$$$$$$$$$$$$$$$$$",
"@@@@@@@@........$$$$$$$$$$$$$$$$$$$$$$$$$$$$$$$$$$$$$$$$$$$$$$$$",
"@@@@@@@@........$$$$$$$$$$$$$$$$$$$$$$$$$$$$$$$$$$$$$$$$$$$$$$$$",
"@@@@@@@@........$$$$$$$$$$$$$$$$$$$$$$$$$$$$$$$$$$$$$$$$$$$$$$$$",
"@@@@@@@@........$$$$$$$$$$$$$$$$$$$$$$$$$$$$$$$$$$$$$$$$$$$$$$$$",
"@@@@@@@@@@@@@@@@........$$$$$$$$$$$$$$$$$$$$$$$$$$$$$$$$$$$$$$$$",
"@@@@@@@@@@@@@@@@........$$$$$$$$$$$$$$$$$$$$$$$$$$$$$$$$$$$$$$$$",
"@@@@@@@@@@@@@@@@........$$$$$$$$$$$$$$$$$$$$$$$$$$$$$$$$$$$$$$$$",
"@@@@@@@@@@@@@@@@........$$$$$$$$$$$$$$$$$$$$$$$$$$$$$$$$$$$$$$$$",
"########@@@@@@@@@@@@@@@@........$$$$$$$$$$$$$$$$$$$$$$$$$$$$$$$$",
"########@@@@@@@@@@@@@@@@........$$$$$$$$$$$$$$$$$$$$$$$$$$$$$$$$",
"########@@@@@@@@@@@@@@@@........$$$$$$$$$$$$$$$$$$$$$$$$$$$$$$$$",
"########@@@@@@@@@@@@@@@@........$$$$$$$$$$$$$$$$$$$$$$$$$$$$$$$$",
"oooooooo########@@@@@@@@@@@@@@@@........$$$$$$$$$$$$$$$$$$$$$$$$",
"oooooooo########@@@@@@@@@@@@@@@@........$$$$$$$$$$$$$$$$$$$$$$$$",
"oooooooo########@@@@@@@@@@@@@@@@........$$$$$$$$$$$$$$$$$$$$$$$$",
"oooooooo########@@@@@@@@@@@@@@@@........$$$$$$$$$$$$$$$$$$$$$$$$",
"XXXXOOOOXXXXoooo########@@@@@@@@@@@@@@@@........$$$$$$$$$$$$$$$$",
"XXXXOOOOXXXXoooo########@@@@@@@@@@@@@@@@........$$$$$$$$$$$$$$$$",
"XXXXOOOOXXXXoooo########@@@@@@@@@@@@@@@@........$$$$$$$$$$$$$$$$",
"XXXXOOOOXXXXoooo########@@@@@@@@@@@@@@@@........$$$$$$$$$$$$$$$$",
"ooooOOOOooooOOOOXXXXoooo########@@@@@@@@@@@@@@@@........$$$$$$$$",
"ooooOOOOooooOOOOXXXXoooo########@@@@@@@@@@@@@@@@........$$$$$$$$",
"ooooOOOOooooOOOOXXXXoooo########@@@@@@@@@@@@@@@@........$$$$$$$$",
"ooooOOOOooooOOOOXXXXoooo########@@@@@@@@@@@@@@@@........$$$$$$$$",
"++++++++++++++++++++++++XXXX++++########@@@@########@@@@........",
"++++++++++++++++++++++++XXXX++++########@@@@########@@@@........",
"++++++++++++++++++++++++XXXX++++########@@@@########@@@@........",
"++++++++++++++++++++++++XXXX++++########@@@@########@@@@........",
"++++++++++++++++++++OOOOoooooooo@@@@@@@@    @@@@@@@@....@@@@@@@@",
"++++++++++++++++++++OOOOoooooooo@@@@@@@@    @@@@@@@@....@@@@@@@@",
"++++++++++++++++++++OOOOoooooooo@@@@@@@@    @@@@@@@@....@@@@@@@@",
"++++++++++++++++++++OOOOoooooooo@@@@@@@@    @@@@@@@@....@@@@@@@@",
"++++++++++++++++XXXXoooo@@@@@@@@                @@@@@@@@$$$$$$$$",
"++++++++++++++++XXXXoooo@@@@@@@@                @@@@@@@@$$$$$$$$",
"++++++++++++++++XXXXoooo@@@@@@@@                @@@@@@@@$$$$$$$$",
"++++++++++++++++XXXXoooo@@@@@@@@                @@@@@@@@$$$$$$$$",
"oooooooooooooooo@@@@@@@@                @@@@@@@@$$$$$$$$$$$$$$$$",
"oooooooooooooooo@@@@@@@@                @@@@@@@@$$$$$$$$$$$$$$$$",
"oooooooooooooooo@@@@@@@@                @@@@@@@@$$$$$$$$$$$$$$$$",
"oooooooooooooooo@@@@@@@@                @@@@@@@@$$$$$$$$$$$$$$$$",
"oooooooo@@@@@@@@                @@@@@@@@$$$$$$$$$$$$$$$$$$$$$$$$",
"oooooooo@@@@@@@@                @@@@@@@@$$$$$$$$$$$$$$$$$$$$$$$$",
"oooooooo@@@@@@@@                @@@@@@@@$$$$$$$$$$$$$$$$$$$$$$$$",
"oooooooo@@@@@@@@                @@@@@@@@$$$$$$$$$$$$$$$$$$$$$$$$",
"@@@@@@@@                @@@@@@@@$$$$$$$$$$$$$$$$$$$$$$$$$$$$$$$$",
"@@@@@@@@                @@@@@@@@$$$$$$$$$$$$$$$$$$$$$$$$$$$$$$$$",
"@@@@@@@@                @@@@@@@@$$$$$$$$$$$$$$$$$$$$$$$$$$$$$$$$",
"@@@@@@@@                @@@@@@@@$$$$$$$$$$$$$$$$$$$$$$$$$$$$$$$$",
"                @@@@@@@@$$$$$$$$$$$$$$$$$$$$$$$$$$$$$$$$$$$$$$$$",
"                @@@@@@@@$$$$$$$$$$$$$$$$$$$$$$$$$$$$$$$$$$$$$$$$",
"                @@@@@@@@$$$$$$$$$$$$$$$$$$$$$$$$$$$$$$$$$$$$$$$$",
"                @@@@@@@@$$$$$$$$$$$$$$$$$$$$$$$$$$$$$$$$$$$$$$$$",
"        @@@@@@@@$$$$$$$$$$$$$$$$$$$$$$$$$$$$$$$$$$$$$$$$$$$$$$$$",
"        @@@@@@@@$$$$$$$$$$$$$$$$$$$$$$$$$$$$$$$$$$$$$$$$$$$$$$$$",
"        @@@@@@@@$$$$$$$$$$$$$$$$$$$$$$$$$$$$$$$$$$$$$$$$$$$$$$$$",
"        @@@@@@@@$$$$$$$$$$$$$$$$$$$$$$$$$$$$$$$$$$$$$$$$$$$$$$$$",
"@@@@@@@@$$$$$$$$$$$$$$$$$$$$$$$$$$$$$$$$$$$$$$$$$$$$$$$$$$$$$$$$",
"@@@@@@@@$$$$$$$$$$$$$$$$$$$$$$$$$$$$$$$$$$$$$$$$$$$$$$$$$$$$$$$$",
"@@@@@@@@$$$$$$$$$$$$$$$$$$$$$$$$$$$$$$$$$$$$$$$$$$$$$$$$$$$$$$$$",
"@@@@@@@@$$$$$$$$$$$$$$$$$$$$$$$$$$$$$$$$$$$$$$$$$$$$$$$$$$$$$$$$"
};
