/* XPM */
static char *result[] = {
/* columns rows colors chars-per-pixel */
"32 32 7 1 ",
"  c gray16",
". c #363434",
"X c #431E05",
"o c #FF847C",
"O c #FECEAB",
"+ c #474545",
"@ c None",
/* pixels */
"@@@@@@@@@@@@@@@@@@@@@@@@@@@@@@@@",
"@@@@@@@@@@@@@@@@@@@@@@@@@@@@@@@@",
"@@@@@@@@@@@@@@@@@@@@@@@@@@@@@@@@",
"@@@@OooooooooooooooooooooO@@@@@@",
"@OoooooooooooooooooooooooooooO@@",
"@oOXXXXXXXXXXXXXXXXXXXXXXXXXOo@@",
"@oXOOOOOOOOOOOOOOOOOOOOooooOXo@@",
"@oXooooooOooooooooooooooooooXo@@",
"@oXXXXXXXXXXXXXXXXXXXXXXXXXXXo@@",
"@oXooooooooooooooooooooooooOXo@@",
"@oXoooooOOOOOOOOOOOOoooooooOXo@@",
"@oXXXXXXXXXXXXXXXXXXXXXXXXXXXo@@",
"@oXOOOOOOOOOOOOOOOOOOOOOOOOOXo@@",
"@oXooooooooooooooooooooooooOXo@@",
"@oXXXXXXXXXXXXXXXXXXXXXXXXXXXo@@",
"@oXOOOOOOOOOOOOOOOOOOOOOOOOOXo@@",
"@oXoooooooooooooooooooOOOooOXo@@",
"@oXXXXXXXXXXXXXXXXXXXXXXXXXXXo@@",
"@oXOOOOOOOOooooooooooooooooOXo@@",
"@oXooooooooooOOOOOOOOOOOooOOXo@@",
"@oXXXXXXXXXXXXXXXXXXXXXXXXXXXo@@",
"@oXOOOOOOOOOO....OOOOOOOOOOOXo@@",
"@oXoooooooooo+  +oooooooooooXo@@",
"@oXXXXXXXXXXXXXXXXXXXXXXXXXXXo@@",
"@oXOOOOooooOOOOOOOOOOOOOOOOOXo@@",
"@oXoOOOOOOooOOoooooOOOOOOoooXo@@",
"@oXoOoooooooooooooooooooooooXo@@",
"@oOXXXXXXXXXXXXXXXXXXXXXXXXXOo@@",
"@OoooooooooooooooooooooooooooO@@",
"@@@@@ooooooooooooooooooooo@@@@@@",
"@@@@@@@@@@@@@@@@@@@@@@@@@@@@@@@@",
"@@@@@@@@@@@@@@@@@@@@@@@@@@@@@@@@"
};
