/* XPM */
static char *result[] = {
/* columns rows colors chars-per-pixel */
"64 64 7 1 ",
"  c gray16",
". c #363434",
"X c #431E05",
"o c #6D320A",
"O c #743A13",
"+ c #474545",
"@ c None",
/* pixels */
"@@@@@@@@@@@@@@@@@@@@@@@@@@@@@@@@@@@@@@@@@@@@@@@@@@@@@@@@@@@@@@@@",
"@@@@@@@@@@@@@@@@@@@@@@@@@@@@@@@@@@@@@@@@@@@@@@@@@@@@@@@@@@@@@@@@",
"@@@@@@@@@@@@@@@@@@@@@@@@@@@@@@@@@@@@@@@@@@@@@@@@@@@@@@@@@@@@@@@@",
"@@@@@@@@@@@@@@@@@@@@@@@@@@@@@@@@@@@@@@@@@@@@@@@@@@@@@@@@@@@@@@@@",
"@@@@@@@@@@@@@@@@@@@@@@@@@@@@@@@@@@@@@@@@@@@@@@@@@@@@@@@@@@@@@@@@",
"@@@@@@@@@@@@@@@@@@@@@@@@@@@@@@@@@@@@@@@@@@@@@@@@@@@@@@@@@@@@@@@@",
"@@@@@@@@OOooooooooooooooooooooooooooooooooooooooooOO@@@@@@@@@@@@",
"@@@@@@@@OOooooooooooooooooooooooooooooooooooooooooOO@@@@@@@@@@@@",
"@@OOooooooooooooooooooooooooooooooooooooooooooooooooooooooOO@@@@",
"@@OOooooooooooooooooooooooooooooooooooooooooooooooooooooooOO@@@@",
"@@ooOOXXXXXXXXXXXXXXXXXXXXXXXXXXXXXXXXXXXXXXXXXXXXXXXXXXOOoo@@@@",
"@@ooOOXXXXXXXXXXXXXXXXXXXXXXXXXXXXXXXXXXXXXXXXXXXXXXXXXXOOoo@@@@",
"@@ooXXOOOOOOOOOOOOOOOOOOOOOOOOOOOOOOOOOOOOOOOOooooooooOOXXoo@@@@",
"@@ooXXOOOOOOOOOOOOOOOOOOOOOOOOOOOOOOOOOOOOOOOOooooooooOOXXoo@@@@",
"@@ooXXooooooooooooOOooooooooooooooooooooooooooooooooooooXXoo@@@@",
"@@ooXXooooooooooooOOooooooooooooooooooooooooooooooooooooXXoo@@@@",
"@@ooXXXXXXXXXXXXXXXXXXXXXXXXXXXXXXXXXXXXXXXXXXXXXXXXXXXXXXoo@@@@",
"@@ooXXXXXXXXXXXXXXXXXXXXXXXXXXXXXXXXXXXXXXXXXXXXXXXXXXXXXXoo@@@@",
"@@ooXXooooooooooooooooooooooooooooooooooooooooooooooooOOXXoo@@@@",
"@@ooXXooooooooooooooooooooooooooooooooooooooooooooooooOOXXoo@@@@",
"@@ooXXooooooooooOOOOOOOOOOOOOOOOOOOOOOOOooooooooooooooOOXXoo@@@@",
"@@ooXXooooooooooOOOOOOOOOOOOOOOOOOOOOOOOooooooooooooooOOXXoo@@@@",
"@@ooXXXXXXXXXXXXXXXXXXXXXXXXXXXXXXXXXXXXXXXXXXXXXXXXXXXXXXoo@@@@",
"@@ooXXXXXXXXXXXXXXXXXXXXXXXXXXXXXXXXXXXXXXXXXXXXXXXXXXXXXXoo@@@@",
"@@ooXXOOOOOOOOOOOOOOOOOOOOOOOOOOOOOOOOOOOOOOOOOOOOOOOOOOXXoo@@@@",
"@@ooXXOOOOOOOOOOOOOOOOOOOOOOOOOOOOOOOOOOOOOOOOOOOOOOOOOOXXoo@@@@",
"@@ooXXooooooooooooooooooooooooooooooooooooooooooooooooOOXXoo@@@@",
"@@ooXXooooooooooooooooooooooooooooooooooooooooooooooooOOXXoo@@@@",
"@@ooXXXXXXXXXXXXXXXXXXXXXXXXXXXXXXXXXXXXXXXXXXXXXXXXXXXXXXoo@@@@",
"@@ooXXXXXXXXXXXXXXXXXXXXXXXXXXXXXXXXXXXXXXXXXXXXXXXXXXXXXXoo@@@@",
"@@ooXXOOOOOOOOOOOOOOOOOOOOOOOOOOOOOOOOOOOOOOOOOOOOOOOOOOXXoo@@@@",
"@@ooXXOOOOOOOOOOOOOOOOOOOOOOOOOOOOOOOOOOOOOOOOOOOOOOOOOOXXoo@@@@",
"@@ooXXooooooooooooooooooooooooooooooooooooooOOOOOOooooOOXXoo@@@@",
"@@ooXXooooooooooooooooooooooooooooooooooooooOOOOOOooooOOXXoo@@@@",
"@@ooXXXXXXXXXXXXXXXXXXXXXXXXXXXXXXXXXXXXXXXXXXXXXXXXXXXXXXoo@@@@",
"@@ooXXXXXXXXXXXXXXXXXXXXXXXXXXXXXXXXXXXXXXXXXXXXXXXXXXXXXXoo@@@@",
"@@ooXXOOOOOOOOOOOOOOOOooooooooooooooooooooooooooooooooOOXXoo@@@@",
"@@ooXXOOOOOOOOOOOOOOOOooooooooooooooooooooooooooooooooOOXXoo@@@@",
"@@ooXXooooooooooooooooooooOOOOOOOOOOOOOOOOOOOOOOooooOOOOXXoo@@@@",
"@@ooXXooooooooooooooooooooOOOOOOOOOOOOOOOOOOOOOOooooOOOOXXoo@@@@",
"@@ooXXXXXXXXXXXXXXXXXXXXXXXXXXXXXXXXXXXXXXXXXXXXXXXXXXXXXXoo@@@@",
"@@ooXXXXXXXXXXXXXXXXXXXXXXXXXXXXXXXXXXXXXXXXXXXXXXXXXXXXXXoo@@@@",
"@@ooXXOOOOOOOOOOOOOOOOOOOO........OOOOOOOOOOOOOOOOOOOOOOXXoo@@@@",
"@@ooXXOOOOOOOOOOOOOOOOOOOO........OOOOOOOOOOOOOOOOOOOOOOXXoo@@@@",
"@@ooXXoooooooooooooooooooo++    ++ooooooooooooooooooooooXXoo@@@@",
"@@ooXXoooooooooooooooooooo++    ++ooooooooooooooooooooooXXoo@@@@",
"@@ooXXXXXXXXXXXXXXXXXXXXXXXXXXXXXXXXXXXXXXXXXXXXXXXXXXXXXXoo@@@@",
"@@ooXXXXXXXXXXXXXXXXXXXXXXXXXXXXXXXXXXXXXXXXXXXXXXXXXXXXXXoo@@@@",
"@@ooXXOOOOOOOOooooooooOOOOOOOOOOOOOOOOOOOOOOOOOOOOOOOOOOXXoo@@@@",
"@@ooXXOOOOOOOOooooooooOOOOOOOOOOOOOOOOOOOOOOOOOOOOOOOOOOXXoo@@@@",
"@@ooXXooOOOOOOOOOOOOooooOOOOooooooooooOOOOOOOOOOOOooooooXXoo@@@@",
"@@ooXXooOOOOOOOOOOOOooooOOOOooooooooooOOOOOOOOOOOOooooooXXoo@@@@",
"@@ooXXooOOooooooooooooooooooooooooooooooooooooooooooooooXXoo@@@@",
"@@ooXXooOOooooooooooooooooooooooooooooooooooooooooooooooXXoo@@@@",
"@@ooOOXXXXXXXXXXXXXXXXXXXXXXXXXXXXXXXXXXXXXXXXXXXXXXXXXXOOoo@@@@",
"@@ooOOXXXXXXXXXXXXXXXXXXXXXXXXXXXXXXXXXXXXXXXXXXXXXXXXXXOOoo@@@@",
"@@OOooooooooooooooooooooooooooooooooooooooooooooooooooooooOO@@@@",
"@@OOooooooooooooooooooooooooooooooooooooooooooooooooooooooOO@@@@",
"@@@@@@@@@@oooooooooooooooooooooooooooooooooooooooooo@@@@@@@@@@@@",
"@@@@@@@@@@oooooooooooooooooooooooooooooooooooooooooo@@@@@@@@@@@@",
"@@@@@@@@@@@@@@@@@@@@@@@@@@@@@@@@@@@@@@@@@@@@@@@@@@@@@@@@@@@@@@@@",
"@@@@@@@@@@@@@@@@@@@@@@@@@@@@@@@@@@@@@@@@@@@@@@@@@@@@@@@@@@@@@@@@",
"@@@@@@@@@@@@@@@@@@@@@@@@@@@@@@@@@@@@@@@@@@@@@@@@@@@@@@@@@@@@@@@@",
"@@@@@@@@@@@@@@@@@@@@@@@@@@@@@@@@@@@@@@@@@@@@@@@@@@@@@@@@@@@@@@@@"
};
