/* XPM */
static char *result[] = {
/* columns rows colors chars-per-pixel */
"64 64 11 1 ",
"  c #181818",
". c gray16",
"X c #313030",
"o c gray21",
"O c #431E05",
"+ c #6D320A",
"@ c #743A13",
"# c gray26",
"$ c gray30",
"% c #767373",
"& c None",
/* pixels */
"&&&&&&&&&&&&&&&&&&&&&&&&&&&&&&&&&&&&&&&&&&&&&&&&&&&&&&&&&&&&&&&&",
"&&&&&&&&&&&&&&&&&&&&&&&&&&&&&&&&&&&&&&&&&&&&&&&&&&&&&&&&&&&&&&&&",
"&&&&&&&&&&&&&&&&&&&&&&&&&&&&&&&&&&&&&&&&&&&&&&&&&&&&&&&&&&&&&&&&",
"&&&&&&&&&&&&&&&&&&&&&&&&&&&&&&&&&&&&&&&&&&&&&&&&&&&&&&&&&&&&&&&&",
"&&&&&&&&&&&&&&&&&&&&&&&&&&&&&&&&&&&&&&&&&&&&&&&&&&&&&&&&&&&&&&&&",
"&&&&&&&&&&&&&&&&&&&&&&&&&&&&&&&&&&&&&&&&&&&&&&&&&&&&&&&&&&&&&&&&",
"&&&&&&&&@@++++++++++++++++++++++++++++++++++++++++@@&&&&&&&&&&&&",
"&&&&&&&&@@++++++++++++++++++++++++++++++++++++++++@@&&&&&&&&&&&&",
"&&@@++++++++++++++++++++++++++++++++++++++++++++++++++++++@@&&&&",
"&&@@++++++++++++++++++++++++++++++++++++++++++++++++++++++@@&&&&",
"&&++@@OOOOOOOOOOOOOOOOOOOOOOOOOOOOOOOOOOOOOOOOOOOOOOOOOO@@++&&&&",
"&&++@@OOOOOOOOOOOOOOOOOOOOOOOOOOOOOOOOOOOOOOOOOOOOOOOOOO@@++&&&&",
"&&++OO                                                  OO++&&&&",
"&&++OO                                                  OO++&&&&",
"&&++OO                                                  OO++&&&&",
"&&++OO                                                  OO++&&&&",
"&&++OO                                                  OO++&&&&",
"&&++OO                                                  OO++&&&&",
"&&++OO                                                  OO++&&&&",
"&&++OO                                                  OO++&&&&",
"&&++OO                                                  OO++&&&&",
"&&++OO                                                  OO++&&&&",
"&&++OO                                                  OO++&&&&",
"&&++OO                                                  OO++&&&&",
"&&++OO                                                  OO++&&&&",
"&&++OO                                                  OO++&&&&",
"&&++OO                                                  OO++&&&&",
"&&++OO                                                  OO++&&&&",
"&&++OO                                                  OO++&&&&",
"&&++OO                                                  OO++&&&&",
"&&++OO                                          ..  ...oOO++&&&&",
"&&++OO          ..       ..........     ..............ooOO++&&&&",
"&&++OO           .....................................ooOO++&&&&",
"&&++OO     o..........................................#oOO++&&&&",
"&&++OO...o...........................................###OO++&&&&",
"&&++OOXXXXXXXXXXXXXXXXXXXXXXXXXXXXXXXXXXXXXXXXXXXXXXX##oOO++&&&&",
"&&++OO..................................................OO++&&&&",
"&&++OO..................................................OO++&&&&",
"&&++OOXXXXXXXXXXXXXXXXXXXXXXXXXXXXXXXXXXX.XXXXXXXX..oo##OO++&&&&",
"&&++OOXXXXXXXXXXXXXXXXXXXXXXXXXXXXXXooXXXXXXXXXXXXX#o###OO++&&&&",
"&&++OOXXXXXXXXoXXXXXXXXXXXXXXXXXXXXXooXXXXXXXXXXXXXX####OO++&&&&",
"&&++OOXoXXXXXXXXX....XXX.XXXXXXXXXXXXXXXXXXXXXXXXX######OO++&&&&",
"&&++OO..................................................OO++&&&&",
"&&++OO..................................................OO++&&&&",
"&&++OOooooooooooooooooooooooooooooooooooooooooooo#######OO++&&&&",
"&&++OOoooooooooooooooooooooooooooooooooooooooooo########OO++&&&&",
"&&++OOoooooooooooooooooooooooooo##oooooooooooooo##ooooooOO++&&&&",
"&&++OOoooooooooooooooooo##%###########$$$$$$$$$#$$$$$%ooOO++&&&&",
"&&++OOo$$$$$$$$$$$$$$$$$##%###########$$$$$$$$$#$$$$$$$%OO++&&&&",
"&&++OO$$$$$$$$$$##$$$$$$$$$$%###$$$##$########$$##%$$$$%OO++&&&&",
"&&++OO$$$$$$$$$%##$$$$$$$$$$$###$$$$$$########$$$$#$$$$%OO++&&&&",
"&&++OO$$####$$$$%$$$$$$$$$$$$$$$$$$$$$$$$$$###$$$$$$$$$$OO++&&&&",
"&&++OO$$$#%%$$$$$$$$$$$$$$$$$$$$$$$$$$$$$$$$$$$$$$$$$$$$OO++&&&&",
"&&++OO$$$$$$$$$$$$$$$$$$$$$$$$$$$$$$$$$$$$$$$$$$$$$$$$$$OO++&&&&",
"&&++@@OOOOOOOOOOOOOOOOOOOOOOOOOOOOOOOOOOOOOOOOOOOOOOOOOO@@++&&&&",
"&&++@@OOOOOOOOOOOOOOOOOOOOOOOOOOOOOOOOOOOOOOOOOOOOOOOOOO@@++&&&&",
"&&@@++++++++++++++++++++++++++++++++++++++++++++++++++++++@@&&&&",
"&&@@++++++++++++++++++++++++++++++++++++++++++++++++++++++@@&&&&",
"&&&&&&&&&&++++++++++++++++++++++++++++++++++++++++++&&&&&&&&&&&&",
"&&&&&&&&&&++++++++++++++++++++++++++++++++++++++++++&&&&&&&&&&&&",
"&&&&&&&&&&&&&&&&&&&&&&&&&&&&&&&&&&&&&&&&&&&&&&&&&&&&&&&&&&&&&&&&",
"&&&&&&&&&&&&&&&&&&&&&&&&&&&&&&&&&&&&&&&&&&&&&&&&&&&&&&&&&&&&&&&&",
"&&&&&&&&&&&&&&&&&&&&&&&&&&&&&&&&&&&&&&&&&&&&&&&&&&&&&&&&&&&&&&&&",
"&&&&&&&&&&&&&&&&&&&&&&&&&&&&&&&&&&&&&&&&&&&&&&&&&&&&&&&&&&&&&&&&"
};
