/* XPM */
static char *result[] = {
/* columns rows colors chars-per-pixel */
"32 32 21 1 ",
"  c #212031",
". c #7D3E1D",
"X c #633831",
"o c #7D451D",
"O c #7F4A1D",
"+ c #465C5B",
"@ c #47585C",
"# c #5A5552",
"$ c #576A73",
"% c #577073",
"& c #656769",
"* c #6B696B",
"= c #933E3B",
"- c #8F5D2F",
"; c #955F30",
": c #85594B",
"> c #A14040",
", c #A34640",
"< c #F6BF58",
"1 c #F6B78C",
"2 c None",
/* pixels */
"22222222222222222222222222222222",
"22222222222222222222222222222222",
"2222222222222>>>>>22222222222222",
"222222222222>,,,2222222222222222",
"2222222222>>,,,,>>22222222222222",
"2222222222>,>>,,,>>2222222222222",
"2222222222,>===>,,>2222222222222",
"2222222222=1111==,,2222222222222",
"22222222222 1 111=,>222222222222",
"22222222222 1 111=,>222222222222",
"22222222222 1 11=,,>222222222222",
"2222222222211111=>,,>22222222222",
"2222222222211111==>,,>2222222222",
"22222222222+++++++@OOOO..2222222",
"22222222222$$$$$$$@o---oO2222222",
"2222222222$%%%%%%$@-;;;;O2222222",
"2222222222$%%%%%$@+-;;;;O2222222",
"2222222222$%%%%$@++-;;;o<2222222",
"2222222222$%%%%$@++-;;;o<2222222",
"2222222222$%%%%$@++-;;;O22222222",
"2222222222$%%%%$@++oo;;O22222222",
"2222222222$$$$$$@+++o;;O22222222",
"2222222222@@@@@@@+++o;o.22222222",
"2222222222XX<<XXXXXXOO..22222222",
"22222222222&&&&&&&&&&22222222222",
"22222222222#&********22222222222",
"22222222222###&******22222222222",
"22222222222####2*****22222222222",
"22222222222####2*****22222222222",
"222222222222###222***22222222222",
"2222222222222##2222**22222222222",
"2222222222222oo2222::22222222222"
};
