/* XPM */
static char *result[] = {
/* columns rows colors chars-per-pixel */
"64 64 194 2 ",
"   c #212031",
".  c #7D3D1D",
"X  c #7D3E1D",
"o  c #7D3F1D",
"O  c #643732",
"+  c #7D401D",
"@  c #7D411D",
"#  c #7D421D",
"$  c #7E431E",
"%  c #7D441D",
"&  c #7D451D",
"*  c #7E461D",
"=  c #7F471D",
"-  c #7F441E",
";  c #7F491D",
":  c #6F4B2C",
">  c #764725",
",  c #7A4621",
"<  c #7E4C22",
"1  c #734929",
"2  c #71492A",
"3  c #7A502C",
"4  c #63413C",
"5  c #654F38",
"6  c #734F30",
"7  c #734E34",
"8  c #7D4B32",
"9  c #795837",
"0  c #5B4546",
"q  c #5E5240",
"w  c #54564B",
"e  c #50584F",
"r  c #55584D",
"t  c #4E5151",
"y  c #495B57",
"u  c #465B5B",
"i  c #465C5B",
"p  c #47595C",
"a  c #48595D",
"s  c #595551",
"d  c #595453",
"f  c #5A5552",
"g  c #5A5453",
"h  c #5A5553",
"j  c #5B5652",
"k  c #5B5653",
"l  c #5C5354",
"z  c #5C5856",
"x  c #5D5958",
"c  c #5D5A58",
"v  c #5E5A58",
"b  c #5E5B59",
"n  c #5F5C58",
"m  c #5F5D5C",
"M  c #635145",
"N  c #685049",
"B  c #785943",
"V  c #7F5D46",
"C  c #605D5D",
"Z  c #605F5F",
"A  c #4A5B60",
"S  c #4A5C60",
"D  c #4B5C61",
"F  c #495E60",
"G  c #4A5F61",
"H  c #4B5C62",
"J  c #4B6061",
"K  c #4E6066",
"L  c #506269",
"P  c #53656D",
"I  c #53666D",
"U  c #53676D",
"Y  c #54686F",
"T  c #576973",
"R  c #576A73",
"E  c #576B73",
"W  c #566C72",
"Q  c #576D73",
"!  c #576E73",
"~  c #576F73",
"^  c #576B74",
"/  c #577073",
"(  c gray39",
")  c #636364",
"_  c #636465",
"`  c #646464",
"'  c #646465",
"]  c #666464",
"[  c #676566",
"{  c #6C6B62",
"}  c #646668",
"|  c #656769",
" . c #666769",
".. c #696769",
"X. c #68686A",
"o. c #69686A",
"O. c #69686B",
"+. c #6A696B",
"@. c #6B696B",
"#. c #716563",
"$. c #717367",
"%. c #727367",
"&. c #943E3B",
"*. c #963E3C",
"=. c #973F3C",
"-. c #993F3D",
";. c #9D3F3F",
":. c #804A1E",
">. c #804820",
",. c #824921",
"<. c #814B20",
"1. c #824B21",
"2. c #834B21",
"3. c #824B22",
"4. c #834B22",
"5. c #824D20",
"6. c #834E21",
"7. c #834F21",
"8. c #834C22",
"9. c #844E22",
"0. c #844F22",
"q. c #855025",
"w. c #875025",
"e. c #885121",
"r. c #8B5428",
"t. c #8B5528",
"y. c #8C572B",
"u. c #8F582B",
"i. c #8F5A2B",
"p. c #925C2B",
"a. c #955E29",
"s. c #905A2C",
"d. c #925D2F",
"f. c #935D2F",
"g. c #964335",
"h. c #994437",
"j. c #9A4637",
"k. c #9A4737",
"l. c #96473B",
"z. c #97403C",
"x. c #9A403D",
"c. c #9A413D",
"v. c #9E413F",
"b. c #9F413F",
"n. c #9F433F",
"m. c #9F443F",
"M. c #935E30",
"N. c #955F30",
"B. c #A0443F",
"V. c #98612C",
"C. c #9B632C",
"Z. c #99642C",
"A. c #9E672C",
"S. c #8E4643",
"D. c #925C52",
"F. c #A14040",
"G. c #A14140",
"H. c #A24040",
"J. c #A24140",
"K. c #A14340",
"L. c #A24240",
"P. c #A24340",
"I. c #A24440",
"U. c #A34440",
"Y. c #A24540",
"T. c #A34540",
"R. c #A34640",
"E. c #A14743",
"W. c #A24A43",
"Q. c #A54A44",
"!. c #A1574C",
"~. c #A8554B",
"^. c #A8564B",
"/. c #A9564B",
"(. c #AC5C4F",
"). c #B0574E",
"_. c #AE5D50",
"`. c #B45D52",
"'. c #BE735E",
"]. c #C38C3F",
"[. c #B8816A",
"{. c #B78971",
"}. c #D19A46",
"|. c #D8A049",
" X c #D8A249",
".X c #D2A95C",
"XX c #F6BF57",
"oX c #F6BF58",
"OX c #CC8269",
"+X c #CE836A",
"@X c #C19175",
"#X c #E09979",
"$X c #F6B78C",
"%X c None",
/* pixels */
"%X%X%X%X%X%X%X%X%X%X%X%X%X%X%X%X%X%X%X%X%X%X%X%X%X%X%X%X%X%X%X%X%X%X%X%X%X%X%X%X%X%X%X%X%X%X%X%X%X%X%X%X%X%X%X%X%X%X%X%X%X%X%X%X",
"%X%X%X%X%X%X%X%X%X%X%X%X%X%X%X%X%X%X%X%X%X%X%X%X%X%X%X%X%X%X%X%X%X%X%X%X%X%X%X%X%X%X%X%X%X%X%X%X%X%X%X%X%X%X%X%X%X%X%X%X%X%X%X%X",
"%X%X%X%X%X%X%X%X%X%X%X%X%X%X%X%X%X%X%X%X%X%X%X%X%X%X%X%X%X%X%X%X%X%X%X%X%X%X%X%X%X%X%X%X%X%X%X%X%X%X%X%X%X%X%X%X%X%X%X%X%X%X%X%X",
"%X%X%X%X%X%X%X%X%X%X%X%X%X%X%X%X%X%X%X%X%X%X%X%X%X%X%X%X%X%X%X%X%X%X%X%X%X%X%X%X%X%X%X%X%X%X%X%X%X%X%X%X%X%X%X%X%X%X%X%X%X%X%X%X",
"%X%X%X%X%X%X%X%X%X%X%X%X%X%X%X%X%X%X%X%X%X%X%X%X%X%X%X%XH.H.H.H.H.H.H.H.H.H.%X%X%X%X%X%X%X%X%X%X%X%X%X%X%X%X%X%X%X%X%X%X%X%X%X%X",
"%X%X%X%X%X%X%X%X%X%X%X%X%X%X%X%X%X%X%X%X%X%X%X%X%X%X%X%XH.H.H.F.G.G.G.G.G.G.%X%X%X%X%X%X%X%X%X%X%X%X%X%X%X%X%X%X%X%X%X%X%X%X%X%X",
"%X%X%X%X%X%X%X%X%X%X%X%X%X%X%X%X%X%X%X%X%X%X%X%X%X%X%X%X%X%X%X%XU.I.I.I.I.P.G.H.%X%X%X%X%X%X%X%X%X%X%X%X%X%X%X%X%X%X%X%X%X%X%X%X",
"%X%X%X%X%X%X%X%X%X%X%X%X%X%X%X%X%X%X%X%X%X%X%X%X%X%X%X%X%X%X%X%XT.R.R.R.R.T.P.G.%X%X%X%X%X%X%X%X%X%X%X%X%X%X%X%X%X%X%X%X%X%X%X%X",
"%X%X%X%X%X%X%X%X%X%X%X%X%X%X%X%X%X%X%X%X%X%X%X%X%X%X%X%XH.H.H.G.I.R.R.R.R.R.T.P.G.H.H.H.%X%X%X%X%X%X%X%X%X%X%X%X%X%X%X%X%X%X%X%X",
"%X%X%X%X%X%X%X%X%X%X%X%X%X%X%X%X%X%X%X%X%X%X%X%X%X%X%X%XF.F.G.P.T.R.R.R.T.I.I.I.L.G.F.H.%X%X%X%X%X%X%X%X%X%X%X%X%X%X%X%X%X%X%X%X",
"%X%X%X%X%X%X%X%X%X%X%X%X%X%X%X%X%X%X%X%X%X%X%X%X%X%XH.F.F.G.P.T.R.R.R.T.P.G.G.L.I.P.G.H.%X%X%X%X%X%X%X%X%X%X%X%X%X%X%X%X%X%X%X%X",
"%X%X%X%X%X%X%X%X%X%X%X%X%X%X%X%X%X%X%X%X%X%X%X%X%X%XH.F.G.P.T.R.T.I.B.n.v.;.;.b.K.I.L.J.%X%X%X%X%X%X%X%X%X%X%X%X%X%X%X%X%X%X%X%X",
"%X%X%X%X%X%X%X%X%X%X%X%X%X%X%X%X%X%X%X%X%X%X%X%X%X%XH.G.P.T.R.T.P.b.x.z.=.*.*.-.b.L.I.U.%X%X%X%X%X%X%X%X%X%X%X%X%X%X%X%X%X%X%X%X",
"%X%X%X%X%X%X%X%X%X%X%X%X%X%X%X%X%X%X%X%X%X%X%X%X%X%XJ.P.T.Y.B.n.v.E.~.(.(.(.(._.`.).Q.m.%X%X%X%X%X%X%X%X%X%X%X%X%X%X%X%X%X%X%X%X",
"%X%X%X%X%X%X%X%X%X%X%X%X%X%X%X%X%X%X%X%X%X%X%X%X%X%XU.T.R.B.c.z.=.~.$X$X$X$X$X$X#X+X/.z.%X%X%X%X%X%X%X%X%X%X%X%X%X%X%X%X%X%X%X%X",
"%X%X%X%X%X%X%X%X%X%X%X%X%X%X%X%X%X%X%X%X%X%X%X%X%X%XT.Y.B.W.^.$X$X$X$X$X$X$X$X$X$X[.!.&.%X%X%X%X%X%X%X%X%X%X%X%X%X%X%X%X%X%X%X%X",
"%X%X%X%X%X%X%X%X%X%X%X%X%X%X%X%X%X%X%X%X%X%X%X%XH.G.I.B.c.^.$X$X$X$X$X$X$X$X$X$X$X0 %X%X%X%X%X%X%X%X%X%X%X%X%X%X%X%X%X%X%X%X%X%X",
"%X%X%X%X%X%X%X%X%X%X%X%X%X%X%X%X%X%X%X%X%X%X%X%XH.G.I.m.z.(.$X$X$X$X$X$X    @X@X    %X%X%X%X%X%X%X%X%X%X%X%X%X%X%X%X%X%X%X%X%X%X",
"%X%X%X%X%X%X%X%X%X%X%X%X%X%X%X%X%X%X%X%X%X%X%X%XH.G.I.m.z.(.$X$X$X$X$X$X    @X@X    %X%X%X%X%X%X%X%X%X%X%X%X%X%X%X%X%X%X%X%X%X%X",
"%X%X%X%X%X%X%X%X%X%X%X%X%X%X%X%X%X%X%X%X%X%X%X%XH.G.I.B.c.^.OX$X$X$X$X$X    @X@X    %X%X%X%X%X%X%X%X%X%X%X%X%X%X%X%X%X%X%X%X%X%X",
"%X%X%X%X%X%X%X%X%X%X%X%X%X%X%X%X%X%X%X%X%X%X%X%XH.G.I.Y.B.W.^.'.$X$X$X$X    $X@X    %X%X%X%X%X%X%X%X%X%X%X%X%X%X%X%X%X%X%X%X%X%X",
"%X%X%X%X%X%X%X%X%X%X%X%X%X%X%X%X%X%X%X%X%X%X%X%XG.P.T.R.T.=.z.(.$X$X$X$X@X@X$X$X@X@X%X%X%X%X%X%X%X%X%X%X%X%X%X%X%X%X%X%X%X%X%X%X",
"%X%X%X%X%X%X%X%X%X%X%X%X%X%X%X%X%X%X%X%X%X%XH.G.P.T.R.T.P.=.=.(.$X$X$X$X$X$X$X$X$X$X%X%X%X%X%X%X%X%X%X%X%X%X%X%X%X%X%X%X%X%X%X%X",
"%X%X%X%X%X%X%X%X%X%X%X%X%X%X%X%X%X%X%X%X%X%XG.P.T.R.T.K.b.=.=.(.$X$X$X$X$X$X$X$X$X$X%X%X%X%X%X%X%X%X%X%X%X%X%X%X%X%X%X%X%X%X%X%X",
"%X%X%X%X%X%X%X%X%X%X%X%X%X%X%X%X%X%X%X%XH.G.P.T.R.T.P.=.=.*.&.(.$X$X$X$X$X$X$X$X$X$X%X%X%X%X%X%X%X%X%X%X%X%X%X%X%X%X%X%X%X%X%X%X",
"%X%X%X%X%X%X%X%X%X%X%X%X%X%X%X%X%X%X%X%Xg.h.j.k.k.l.S.=.=.=.=.D.{.$X$X$X$X$X$X$X$X$X%X%X%X%X%X%X%X%X%X%X%X%X%X%X%X%X%X%X%X%X%X%X",
"%X%X%X%X%X%X%X%X%X%X%X%X%X%XX . . . . . . . . . . 8 N l g d d n { %.%.%.%.%.%.%.%.$.%X%X%X%X%X%X%X%X%X%X%X%X%X%X%X%X%X%X%X%X%X%X",
"%X%X%X%X%X%X%X%X%X%X%X%X%X%X. @ + $ <.7.7.7.7.5.:.H H H F G G G G G G G G G G G G J %X%X%X%X%X%X%X%X%X%X%X%X%X%X%X%X%X%X%X%X%X%X",
"%X%X%X%X%X%X%X%X%X%X%X%X%X%X. * % >.N.N.N.N.N.N.<.H H H H I I I I I I I I I I I I U %X%X%X%X%X%X%X%X%X%X%X%X%X%X%X%X%X%X%X%X%X%X",
"%X%X%X%X%X%X%X%X%X%X%X%X%X%X. :.1.N.N.N.N.N.N.N.q.i H H P R E E E E E E E E E E E E %X%X%X%X%X%X%X%X%X%X%X%X%X%X%X%X%X%X%X%X%X%X",
"%X%X%X%X%X%X%X%X%X%X%X%X%X%X; 6.t.N.d.M.M.M.N.N.N.i i H P E Q ! ! ! ! ! ! ! ! ! ! ! E ^ %X%X%X%X%X%X%X%X%X%X%X%X%X%X%X%X%X%X%X%X",
"%X%X%X%X%X%X%X%X%X%X%X%X%X%X; 0.i.N.N.N.N.N.N.N.N.i i i L Y W ~ / / / / / / / / / ! E T %X%X%X%X%X%X%X%X%X%X%X%X%X%X%X%X%X%X%X%X",
"%X%X%X%X%X%X%X%X%X%X%X%X%X%X; 0.i.N.N.N.N.N.N.N.N.i i i S K Y Q ~ / / / / / / / / ! E T %X%X%X%X%X%X%X%X%X%X%X%X%X%X%X%X%X%X%X%X",
"%X%X%X%X%X%X%X%X%X%X%X%X%X%XA.Z.p.N.N.N.N.N.N.N.N.i i i i S L Y W ~ / / / / / / / ! E T %X%X%X%X%X%X%X%X%X%X%X%X%X%X%X%X%X%X%X%X",
"%X%X%X%X%X%X%X%X%X%X%X%X%X%X X].V.N.N.N.N.N.N.N.N.i i i i i S K Y Q ~ / / / / / / ! E T %X%X%X%X%X%X%X%X%X%X%X%X%X%X%X%X%X%X%X%X",
"%X%X%X%X%X%X%X%X%X%X%X%X%X%XoX|.C.4.N.N.N.N.N.N.N.i i i i i p H P E ! / / / / / / ! E T %X%X%X%X%X%X%X%X%X%X%X%X%X%X%X%X%X%X%X%X",
"%X%X%X%X%X%X%X%X%X%X%X%X%X%XoX|.C.4.N.N.N.N.N.N.N.i i i i i p H P E ! / / / / / / ! E T %X%X%X%X%X%X%X%X%X%X%X%X%X%X%X%X%X%X%X%X",
"%X%X%X%X%X%X%X%X%X%X%X%X%X%XXX}.a.8.N.N.N.N.N.N.N.i i i i i p H P E ! / / / / / / ! E T %X%X%X%X%X%X%X%X%X%X%X%X%X%X%X%X%X%X%X%X",
"%X%X%X%X%X%X%X%X%X%X%X%X%X%X%X%Xe.9.N.N.N.N.N.N.N.i i i i i p H P E ! / / / / / / ! E T %X%X%X%X%X%X%X%X%X%X%X%X%X%X%X%X%X%X%X%X",
"%X%X%X%X%X%X%X%X%X%X%X%X%X%X%X%X; 0.N.N.N.N.N.N.y.9 i i i u p H P E ! / / / / / / ! E T %X%X%X%X%X%X%X%X%X%X%X%X%X%X%X%X%X%X%X%X",
"%X%X%X%X%X%X%X%X%X%X%X%X%X%X%X%X; 0.N.N.N.N.w.4.3.6 r i i u p H P E ! / / / / / / ! E T %X%X%X%X%X%X%X%X%X%X%X%X%X%X%X%X%X%X%X%X",
"%X%X%X%X%X%X%X%X%X%X%X%X%X%X%X%X; 0.N.N.N.N.4., 1 5 e i i u p H P E Q ! ! ! ! ! ! Q E T %X%X%X%X%X%X%X%X%X%X%X%X%X%X%X%X%X%X%X%X",
"%X%X%X%X%X%X%X%X%X%X%X%X%X%X%X%X; 0.i.N.N.u.4.1 q e y i i u p H P R E E E E E E E E R T %X%X%X%X%X%X%X%X%X%X%X%X%X%X%X%X%X%X%X%X",
"%X%X%X%X%X%X%X%X%X%X%X%X%X%X%X%X= 2.r.s.f.u.4.: w i i i i u p A L P P P P P P P P P P P %X%X%X%X%X%X%X%X%X%X%X%X%X%X%X%X%X%X%X%X",
"%X%X%X%X%X%X%X%X%X%X%X%X%X%X%X%X@ - ,.w.s.u.4.: w i i i i u p a A H H H H H H H H H H D %X%X%X%X%X%X%X%X%X%X%X%X%X%X%X%X%X%X%X%X",
"%X%X%X%X%X%X%X%X%X%X%X%X%X%X%X%X. o # ,.r.t.1.2 O O O O O O O O O O O O t t t t O O O O %X%X%X%X%X%X%X%X%X%X%X%X%X%X%X%X%X%X%X%X",
"%X%X%X%X%X%X%X%X%X%X%X%X%X%X%X%X. X o - 2.6.:.> O O O O O O O O O O O B .X.X.X.XB O O O %X%X%X%X%X%X%X%X%X%X%X%X%X%X%X%X%X%X%X%X",
"%X%X%X%X%X%X%X%X%X%X%X%X%X%X%X%X. . . @ = < 3 7 O O O O O O O O O O O V .X.X.X.XV 4 O O %X%X%X%X%X%X%X%X%X%X%X%X%X%X%X%X%X%X%X%X",
"%X%X%X%X%X%X%X%X%X%X%X%X%X%X%X%X%X%X%X%X%X%X . . . . . . . . . . . . . . . . . . . .%X%X%X%X%X%X%X%X%X%X%X%X%X%X%X%X%X%X%X%X%X%X",
"%X%X%X%X%X%X%X%X%X%X%X%X%X%X%X%X%X%X%X%X%X%X . . . . . . . . . . . . . . . .| } _ ( %X%X%X%X%X%X%X%X%X%X%X%X%X%X%X%X%X%X%X%X%X%X",
"%X%X%X%X%X%X%X%X%X%X%X%X%X%X%X%X%X%X%X%X%X%XO.o.o.o.o.o.o.o.o.o.o.o.o.o.o.X. ._ m x %X%X%X%X%X%X%X%X%X%X%X%X%X%X%X%X%X%X%X%X%X%X",
"%X%X%X%X%X%X%X%X%X%X%X%X%X%X%X%X%X%X%X%X%X%X@.@.@.@.@.@.@.@.@.@.@.@.+...[ ] ) Z z s %X%X%X%X%X%X%X%X%X%X%X%X%X%X%X%X%X%X%X%X%X%X",
"%X%X%X%X%X%X%X%X%X%X%X%X%X%X%X%X%X%X%X%X%X%X@.@.@.@.@.@.@.@.@.@.@.+.X.' C v c z k s %X%X%X%X%X%X%X%X%X%X%X%X%X%X%X%X%X%X%X%X%X%X",
"%X%X%X%X%X%X%X%X%X%X%X%X%X%X%X%X%X%X%X%X%X%X@.@.@.@.@.@.@.@.@.@.@...` Z z f f f f s %X%X%X%X%X%X%X%X%X%X%X%X%X%X%X%X%X%X%X%X%X%X",
"%X%X%X%X%X%X%X%X%X%X%X%X%X%X%X%X%X%X%X%X%X%X@.@.@.@.@.@.@.@.@.@.%X%Xb z k f f f f s %X%X%X%X%X%X%X%X%X%X%X%X%X%X%X%X%X%X%X%X%X%X",
"%X%X%X%X%X%X%X%X%X%X%X%X%X%X%X%X%X%X%X%X%X%X@.@.@.@.@.@.@.@.@.@.%X%Xs f f f f f f s %X%X%X%X%X%X%X%X%X%X%X%X%X%X%X%X%X%X%X%X%X%X",
"%X%X%X%X%X%X%X%X%X%X%X%X%X%X%X%X%X%X%X%X%X%X@.@.@.@.@.@.@.@.@.@.%X%Xs f f f f f f s %X%X%X%X%X%X%X%X%X%X%X%X%X%X%X%X%X%X%X%X%X%X",
"%X%X%X%X%X%X%X%X%X%X%X%X%X%X%X%X%X%X%X%X%X%X@.@.@.@.@.@.@.@.@.@.%X%Xs f f f f f h j %X%X%X%X%X%X%X%X%X%X%X%X%X%X%X%X%X%X%X%X%X%X",
"%X%X%X%X%X%X%X%X%X%X%X%X%X%X%X%X%X%X%X%X%X%X@.@.@.@.@.@.%X%X%X%X%X%Xs f f f f h %X%X%X%X%X%X%X%X%X%X%X%X%X%X%X%X%X%X%X%X%X%X%X%X",
"%X%X%X%X%X%X%X%X%X%X%X%X%X%X%X%X%X%X%X%X%X%X@.@.@.@.@.@.%X%X%X%X%X%Xs f f f h j %X%X%X%X%X%X%X%X%X%X%X%X%X%X%X%X%X%X%X%X%X%X%X%X",
"%X%X%X%X%X%X%X%X%X%X%X%X%X%X%X%X%X%X%X%X%X%X@.@.@.@.%X%X%X%X%X%X%X%Xs f f h %X%X%X%X%X%X%X%X%X%X%X%X%X%X%X%X%X%X%X%X%X%X%X%X%X%X",
"%X%X%X%X%X%X%X%X%X%X%X%X%X%X%X%X%X%X%X%X%X%X#.#.#.#.%X%X%X%X%X%X%X%XM M M M %X%X%X%X%X%X%X%X%X%X%X%X%X%X%X%X%X%X%X%X%X%X%X%X%X%X",
"%X%X%X%X%X%X%X%X%X%X%X%X%X%X%X%X%X%X%X%X%X%X& & & & %X%X%X%X%X%X%X%X& & & & %X%X%X%X%X%X%X%X%X%X%X%X%X%X%X%X%X%X%X%X%X%X%X%X%X%X",
"%X%X%X%X%X%X%X%X%X%X%X%X%X%X%X%X%X%X%X%X%X%X& & & & %X%X%X%X%X%X%X%X& & & & %X%X%X%X%X%X%X%X%X%X%X%X%X%X%X%X%X%X%X%X%X%X%X%X%X%X"
};
