/* XPM */
static char *result[] = {
/* columns rows colors chars-per-pixel */
"64 64 7 1 ",
"  c black",
". c #989898",
"X c gray73",
"o c gray83",
"O c #E1E1E1",
"+ c #ECECEC",
"@ c None",
/* pixels */
"@@@@@@@@@@@@@@@@@@@@@@@@@@@@@@@@@@@@@@@@@@@@@@@@@@@@@@@@@@@@@@@@",
"@@@@@@@@@@@@@@@@@@@@@@@@@@@@@@@@@@@@@@@@@@@@@@@@@@@@@@@@@@@@@@@@",
"@@@@@@@@@@@@@@@@@@@@@@@@@@@@@@@@@@@@@@@@@@@@@@@@@@@@@@@@@@@@@@@@",
"@@@@@@@@@@@@@@@@@@@@@@@@@@@@@@@@@@@@@@@@@@@@@@@@@@@@@@@@@@@@@@@@",
"@@@@@@@@@@@@@@@@@@@@@@@@@@@@@@@@@@@@@@@@@@@@@@@@@@@@@@@@@@@@@@@@",
"@@@@@@@@@@@@@@@@@@@@@@@@@@@@@@@@@@@@@@@@@@@@@@@@@@@@@@@@@@@@@@@@",
"@@@@@@@@@@@@@@@@@@@@@@@@@@@@@@@@@@@@@@@@@@@@@@@@@@@@@@@@@@@@@@@@",
"@@@@@@@@@@@@@@@@@@@@@@@@@@@@@@@@@@@@@@@@@@@@@@@@@@@@@@@@@@@@@@@@",
"@@@@@@@@@@@@@@@@@@@@@@@@@@@@@@@@@@@@@@@@@@@@@@@@@@@@@@@@@@@@@@@@",
"@@@@@@@@@@@@@@@@@@@@@@@@@@@@@@@@@@@@@@@@@@@@@@@@@@@@@@@@@@@@@@@@",
"@@@@@@@@@@@@@@@@@@@@@@@@@@@@@@@@@@@@@@@@@@@@@@@@@@@@@@@@@@@@@@@@",
"@@@@@@@@@@@@@@@@@@@@@@@@@@@@@@@@@@@@@@@@@@@@@@@@@@@@@@@@@@@@@@@@",
"@@@@@@@@@@@@@@@@@@@@@@@@@@@@@@@@@@@@@@@@@@@@@@@@@@@@@@@@@@@@@@@@",
"@@@@@@@@@@@@@@@@@@@@@@@@@@@@@@@@@@@@@@@@@@@@@@@@@@@@@@@@@@@@@@@@",
"@@@@@@@@@@@@@@@@@@@@@@@@@@@@@@@@@@@@@@@@@@@@@@@@@@@@@@@@@@@@@@@@",
"@@@@@@@@@@@@@@@@@@@@@@@@@@@@@@@@@@@@@@@@@@@@@@@@@@@@@@@@@@@@@@@@",
"XXXXXXXooooooooooooXXXooooooooXXXXXXXXXXXXXXXXXOOXXXXXXXXXXXXXXX",
"oooooooooooooooooooooooooooXXXXXOOOOOOOOOOOOOOOO+++++++++++++++X",
"X+++++++++++++++++++++++++++++XXOOOOOO+++++++++++++++++++++++++X",
"X+++++++++++++++++++++++++++++++++++++++++++++++++OO..+++++++++X",
"X+++++++++++++++++++++++++++++++++++++++++++++++++X...++++++++++",
"++++++++++++++++++++++++++++++++++++++++++++++++++++++++++++++++",
".OOOOOOOOOOOOO++++++++++++++++++++++++++++++++++OOOOOOOOOOO+OO..",
".................OOOOOOOOOOOOOOO................................",
".............................................................XX.",
"XXXXXXXXXXXXXXXXXXXXXXXXXXXXXXXXXXXX...............XXXXXXXXXXXXX",
"OOOOO               XX           X.oo              X        OOOO",
"OOOO                X.           X.oo              X            ",
"                   XXXX         XXX    XO          X            ",
"                   XXX          XXX    OO          X            ",
"                    XX           X.                X            ",
"                    X.           X.oo              X            ",
"                   X..           X..o              X            ",
"                   X.             X.o              X            ",
"                  XX.             X..              X            ",
"                  X..             XX.              X            ",
"         O       oX.O     OOOOO    X.     OOO     OX            ",
"  OOO XO OO     Oo..O    OOOOOOO    ..  OOOOOOO   XO      OOOO  ",
"OOOOO OO OOOO  Ooo.X.OOOOOOOOOOOO   X..OOO..OOOO  XOOO   OOOOOOO",
"OOOOOOOOOOOOOOOoo..XX...............XX............X...OOOOOOOOOO",
"................XXXXXXXXXXXXXXXXXXXXXXXXXXXXXXXXXXXXX...........",
"XXXXXXXXXXXXXXXX        ...    OOO            X     XXXXX.......",
"                        X..    OOX           X.          XXXXXXX",
"                        X.                   ..                 ",
"                        X.                   ..                 ",
"                        X.                   ..                 ",
"                        ..                   .                  ",
"                        .       XO          X.                  ",
"                        .       OO          ..    XO            ",
"                        .                  X.X    OO            ",
"                       .X                 OX.O                  ",
"                    ooo.X            OOOOOOXO.             OOO  ",
"                  oooo..XXX        OOOOOOXXXO.OOOOOOOOOOOOOOOOOO",
".........    ooooooooo.XOOXXXXXXOOOOOOOXXOOXX...................",
"XXXXXXXXXoooo.......XX OOOOOOOOOXOOOOOOOOOO   XXXXXXXXX XXXXXXXX",
"                O..                               O..           ",
"                O..                               O..           ",
"                O..                              O...           ",
"                O..                              O...           ",
"                O..                              O...           ",
"                OO..                             O...          .",
"                OO...                           OO..          ..",
"             .. OO...                           O...          ..",
"               ................................................."
};
